<?xml version="1.0" encoding="UTF-8" standalone="no"?>
<svg
   xmlns:dc="http://purl.org/dc/elements/1.1/"
   xmlns:cc="http://creativecommons.org/ns#"
   xmlns:rdf="http://www.w3.org/1999/02/22-rdf-syntax-ns#"
   xmlns:svg="http://www.w3.org/2000/svg"
   xmlns="http://www.w3.org/2000/svg"
   xmlns:sodipodi="http://sodipodi.sourceforge.net/DTD/sodipodi-0.dtd"
   xmlns:inkscape="http://www.inkscape.org/namespaces/inkscape"
   width="240mm"
   height="120mm"
   viewBox="0 0 240 120"
   version="1.1"
   id="svg8"
   inkscape:version="1.0 (4035a4fb49, 2020-05-01)"
   sodipodi:docname="something.svg">
  <defs
     id="defs2" />
  <sodipodi:namedview
     id="base"
     pagecolor="#ffffff"
     bordercolor="#666666"
     borderopacity="1.0"
     inkscape:pageopacity="0.0"
     inkscape:pageshadow="2"
     inkscape:zoom="0.99437388"
     inkscape:cx="284.27627"
     inkscape:cy="181.71489"
     inkscape:document-units="mm"
     inkscape:current-layer="layer1"
     showgrid="false"
     showborder="true"
     width="200mm"
     showguides="true"
     inkscape:guide-bbox="true"
     inkscape:window-width="1906"
     inkscape:window-height="1048"
     inkscape:window-x="6"
     inkscape:window-y="24"
     inkscape:window-maximized="1"
     inkscape:document-rotation="0">
    <inkscape:grid
       type="xygrid"
       id="grid815"
       units="mm"
       spacingx="10"
       spacingy="10"
       empspacing="4"
       dotted="false" />
  </sodipodi:namedview>
  <metadata
     id="metadata5">
    <rdf:RDF>
      <cc:Work
         rdf:about="">
        <dc:format>image/svg+xml</dc:format>
        <dc:type
           rdf:resource="http://purl.org/dc/dcmitype/StillImage" />
        <dc:title />
      </cc:Work>
    </rdf:RDF>
  </metadata>
  <g
     inkscape:label="Layer 1"
     inkscape:groupmode="layer"
     id="layer1"
     transform="translate(0,-177)">
    <text
       id="text833"
       xml:space="preserve"
       style="font-size:2.64583px;font-family:monospace;-inkscape-font-specification:'monospace, Normal';fill:#000000;fill-opacity:1;stroke:none;stroke-width:0.264583"
       y="239.15767"
       x="18.36883"><tspan
         id="tspan831"
         sodipodi:role="line"
         x="18.36883"
         y="239.15767"
         style="stroke-width:0.264583">$\int_{0}^{\infty} sinc(x) d x$</tspan></text>
    <path
       style="fill:none;stroke:#000000;stroke-width:0.264583px;stroke-linecap:butt;stroke-linejoin:miter;stroke-opacity:1"
       d="m 87.099165,195.78689 v 60.04972 h 94.600795"
       id="path845" />
    <path
       style="fill:none;stroke:#000000;stroke-width:0.264583px;stroke-linecap:butt;stroke-linejoin:miter;stroke-opacity:1"
       d="m 87.099163,255.83661 c -0.138057,-1.24735 -0.948838,-2.60667 -0.414174,-3.74205 1.897621,-4.02963 4.923637,-7.42393 7.412054,-11.11808 1.618853,-2.40324 2.026144,-2.46904 4.635455,-4.23545 5.648802,-3.82404 6.654422,-4.6997 12.813272,-7.5932 0.96348,-0.45266 5.47206,-2.50713 7.05821,-2.03127 2.02693,0.60811 1.31471,5.1445 2.53094,6.50816 1.83281,2.05496 4.29703,3.19916 6.41775,4.8811 1.3741,1.08981 0.46194,0.87184 1.26284,1.54268 2.65098,2.22052 5.84535,4.31302 9.40065,4.60993 1.27046,0.10609 4.64688,-2.66903 4.84397,-2.79619 3.1295,-2.01903 6.38465,-3.92084 9.31026,-6.23695 1.04615,-0.8282 1.01177,-1.60857 1.61905,-2.11338 2.28492,-1.89937 8.26249,-3.13609 11.20847,-3.25406 1.69475,-0.0679 1.93771,1.56772 3.36632,2.62766 3.17892,2.35855 6.80761,4.82465 10.21418,6.77931 0.30567,0.1754 0.68571,0.16545 1.0219,0.27119 1.86511,0.58661 3.73136,1.17045 5.60815,1.71854 2.88785,0.84336 5.81228,1.64342 8.77883,2.1726 0.88201,0.15734 1.7816,-0.23535 2.67753,-0.23465 1.2669,0.001 2.53092,0.12052 3.79639,0.18078"
       id="path847" />
    <text
       x="32.744282"
       y="203.5029"
       style="font-size:2.64583px;font-family:monospace;-inkscape-font-specification:'monospace, Normal';fill:#000000;fill-opacity:1;stroke:none;stroke-width:0.264583"
       xml:space="preserve"
       id="text837"><tspan
         style="stroke-width:0.264583"
         y="203.5029"
         x="32.744282"
         sodipodi:role="line"
         id="tspan835">$ \sum_{n=0}^{\infty } \frac{1}{n}$</tspan></text>
    <text
       id="text839"
       xml:space="preserve"
       style="font-size:2.64583px;font-family:monospace;-inkscape-font-specification:'monospace, Normal';fill:#000000;fill-opacity:1;stroke:none;stroke-width:0.264583"
       y="223.82126"
       x="105.91282"><tspan
         id="tspan837"
         sodipodi:role="line"
         x="105.91282"
         y="223.82126"
         style="stroke-width:0.264583">$2 + 2 = \frac{15}{\frac{4}{15}}$</tspan></text>
    <text
       x="67.083519"
       y="263.94089"
       style="font-size:2.64583px;font-family:monospace;-inkscape-font-specification:'monospace, Normal';fill:#000000;fill-opacity:1;stroke:none;stroke-width:0.264583"
       xml:space="preserve"
       id="text841"><tspan
         style="stroke-width:0.264583"
         y="263.94089"
         x="67.083519"
         sodipodi:role="line"
         id="tspan839">$3 + 2 = \frac{25}{5}$</tspan></text>
  </g>
</svg>
