<?xml version="1.0" encoding="UTF-8" standalone="no"?>
<svg
   xmlns:dc="http://purl.org/dc/elements/1.1/"
   xmlns:cc="http://creativecommons.org/ns#"
   xmlns:rdf="http://www.w3.org/1999/02/22-rdf-syntax-ns#"
   xmlns:svg="http://www.w3.org/2000/svg"
   xmlns="http://www.w3.org/2000/svg"
   xmlns:sodipodi="http://sodipodi.sourceforge.net/DTD/sodipodi-0.dtd"
   xmlns:inkscape="http://www.inkscape.org/namespaces/inkscape"
   width="240mm"
   height="120mm"
   viewBox="0 0 240 120"
   version="1.1"
   id="svg8"
   inkscape:version="1.0.2 (e86c870879, 2021-01-15, custom)"
   sodipodi:docname="biot-savart.svg">
  <defs
     id="defs2">
    <marker
       id="marker-arrow-0.5308"
       orient="auto-start-reverse"
       refY="0"
       refX="0"
       markerHeight="1.690"
       markerWidth="0.911">
      <g
         transform="scale(2.153529264004019)"
         id="g844">
        <path
           d="M -1.55415,2.0722 C -1.42464,1.29512 0,0.1295 0.38852,0 0,-0.1295 -1.42464,-1.29512 -1.55415,-2.0722"
           style="fill:none;stroke:#000000;stroke-width:0.6;stroke-linecap:round;stroke-linejoin:round;stroke-miterlimit:10;stroke-dasharray:none;stroke-opacity:1"
           inkscape:connector-curvature="0"
           id="path842" />
      </g>
    </marker>
    <marker
       id="marker-arrow-0.5308-3"
       orient="auto-start-reverse"
       refY="0"
       refX="0"
       markerHeight="1.690"
       markerWidth="0.911">
      <g
         transform="scale(2.153529264004019)"
         id="g870">
        <path
           d="M -1.55415,2.0722 C -1.42464,1.29512 0,0.1295 0.38852,0 0,-0.1295 -1.42464,-1.29512 -1.55415,-2.0722"
           style="fill:none;stroke:#000000;stroke-width:0.6;stroke-linecap:round;stroke-linejoin:round;stroke-miterlimit:10;stroke-dasharray:none;stroke-opacity:1"
           inkscape:connector-curvature="0"
           id="path868" />
      </g>
    </marker>
    <marker
       id="marker-arrow-0.5308-6"
       orient="auto-start-reverse"
       refY="0"
       refX="0"
       markerHeight="1.6900001"
       markerWidth="0.91100001">
      <g
         transform="scale(2.1535293)"
         id="g1195">
        <path
           d="M -1.55415,2.0722 C -1.42464,1.29512 0,0.1295 0.38852,0 0,-0.1295 -1.42464,-1.29512 -1.55415,-2.0722"
           style="fill:none;stroke:#000000;stroke-width:0.60000002;stroke-linecap:round;stroke-linejoin:round;stroke-miterlimit:10;stroke-dasharray:none;stroke-opacity:1"
           inkscape:connector-curvature="0"
           id="path1193" />
      </g>
    </marker>
    <marker
       id="marker1232"
       orient="auto-start-reverse"
       refY="0"
       refX="0"
       markerHeight="1.6900001"
       markerWidth="0.91100001">
      <g
         transform="scale(2.1535293)"
         id="g1230">
        <path
           d="M -1.55415,2.0722 C -1.42464,1.29512 0,0.1295 0.38852,0 0,-0.1295 -1.42464,-1.29512 -1.55415,-2.0722"
           style="fill:none;stroke:#000000;stroke-width:0.60000002;stroke-linecap:round;stroke-linejoin:round;stroke-miterlimit:10;stroke-dasharray:none;stroke-opacity:1"
           inkscape:connector-curvature="0"
           id="path1228" />
      </g>
    </marker>
    <marker
       id="marker1238"
       orient="auto-start-reverse"
       refY="0"
       refX="0"
       markerHeight="1.6900001"
       markerWidth="0.91100001">
      <g
         transform="scale(2.1535293)"
         id="g1236">
        <path
           d="M -1.55415,2.0722 C -1.42464,1.29512 0,0.1295 0.38852,0 0,-0.1295 -1.42464,-1.29512 -1.55415,-2.0722"
           style="fill:none;stroke:#000000;stroke-width:0.60000002;stroke-linecap:round;stroke-linejoin:round;stroke-miterlimit:10;stroke-dasharray:none;stroke-opacity:1"
           inkscape:connector-curvature="0"
           id="path1234" />
      </g>
    </marker>
  </defs>
  <sodipodi:namedview
     id="base"
     pagecolor="#ffffff"
     bordercolor="#666666"
     borderopacity="1.0"
     inkscape:pageopacity="0.0"
     inkscape:pageshadow="2"
     inkscape:zoom="0.99437388"
     inkscape:cx="284.27627"
     inkscape:cy="182.72055"
     inkscape:document-units="mm"
     inkscape:current-layer="layer1"
     showgrid="false"
     showborder="true"
     width="200mm"
     showguides="true"
     inkscape:guide-bbox="true"
     inkscape:window-width="1918"
     inkscape:window-height="1060"
     inkscape:window-x="0"
     inkscape:window-y="18"
     inkscape:window-maximized="1"
     inkscape:document-rotation="0"
     inkscape:snap-global="false">
    <inkscape:grid
       type="xygrid"
       id="grid815"
       units="mm"
       spacingx="10"
       spacingy="10"
       empspacing="4"
       dotted="false" />
  </sodipodi:namedview>
  <metadata
     id="metadata5">
    <rdf:RDF>
      <cc:Work
         rdf:about="">
        <dc:format>image/svg+xml</dc:format>
        <dc:type
           rdf:resource="http://purl.org/dc/dcmitype/StillImage" />
        <dc:title />
      </cc:Work>
    </rdf:RDF>
  </metadata>
  <g
     inkscape:label="Layer 1"
     inkscape:groupmode="layer"
     id="layer1"
     transform="translate(0,-177)">
    <path
       id="path831"
       style="fill:none;stroke:#000000;stroke-width:0.264583px;stroke-linecap:butt;stroke-linejoin:miter;stroke-opacity:1"
       d="m 25.901566,247.4721 c 15.408728,-10.22288 35.02325,-10.00473 52.322561,-5.65521 15.113477,1.5343 32.142183,-1.09979 42.777743,-12.93063" />
    <path
       style="fill:none;stroke:black;stroke-width:0.14044083;stroke-linecap:butt;stroke-linejoin:miter;stroke-opacity:1;fill-opacity:1;marker-end:url(#marker-arrow-0.5308);marker-start:none;stroke-dasharray:none"
       d="m 34.78453,276.16835 82.22095,-14.20848"
       id="path840" />
    <path
       style="fill:none;stroke:black;stroke-width:0.14044083;stroke-linecap:butt;stroke-linejoin:miter;stroke-opacity:1;fill-opacity:1;marker-end:url(#marker-arrow-0.5308);marker-start:none;stroke-dasharray:none"
       d="m 71.492329,240.65699 44.323781,19.68426"
       id="path866" />
    <text
       style="font-size:2.64583px;font-family:monospace;-inkscape-font-specification:'monospace, Normal';fill:#000000;fill-opacity:1;stroke:none;stroke-width:0.264583"
       xml:space="preserve"
       id="text903"
       y="237.13237"
       x="61.170403"><tspan
         sodipodi:role="line"
         id="tspan901"
         x="61.170403"
         y="237.13237"
         style="stroke-width:0.264583">$\vec{dl}$</tspan></text>
    <text
       style="font-size:2.64583px;font-family:monospace;-inkscape-font-specification:'monospace, Normal';fill:#000000;fill-opacity:1;stroke:none;stroke-width:0.264583"
       xml:space="preserve"
       id="text917"
       y="249.09889"
       x="93.098267"><tspan
         sodipodi:role="line"
         id="tspan915"
         x="93.098267"
         y="249.09889"
         style="stroke-width:0.264583">$\vec{r}$</tspan></text>
    <text
       style="font-size:2.64583px;font-family:monospace;-inkscape-font-specification:'monospace, Normal';fill:#000000;fill-opacity:1;stroke:none;stroke-width:0.264583"
       xml:space="preserve"
       id="text931"
       y="269.26157"
       x="114.38469"><tspan
         sodipodi:role="line"
         id="tspan929"
         x="114.38469"
         y="269.26157"
         style="stroke-width:0.264583">$\vec{p}$</tspan></text>
    <g
       id="g1056"
       transform="translate(9.6057372,14.700257)">
      <path
         style="color:#000000;clip-rule:nonzero;display:inline;overflow:visible;visibility:visible;isolation:auto;mix-blend-mode:normal;color-interpolation:sRGB;color-interpolation-filters:linearRGB;solid-color:#000000;solid-opacity:1;vector-effect:none;fill:none;fill-opacity:1;fill-rule:nonzero;stroke:#000000;stroke-width:0.140441;stroke-linecap:round;stroke-linejoin:round;stroke-miterlimit:4;stroke-dasharray:none;stroke-dashoffset:0;stroke-opacity:1;marker-start:url(#marker-arrow-0.5308-6);marker-end:url(#marker-arrow-0.5308-6);color-rendering:auto;image-rendering:auto;shape-rendering:auto;text-rendering:auto;enable-background:accumulate"
         d="m 22.31933,253.76595 v 8.159 l 6.07864,3.50717"
         id="path1040"
         inkscape:connector-curvature="0" />
      <path
         style="color:#000000;clip-rule:nonzero;display:inline;overflow:visible;visibility:visible;isolation:auto;mix-blend-mode:normal;color-interpolation:sRGB;color-interpolation-filters:linearRGB;solid-color:#000000;solid-opacity:1;vector-effect:none;fill:none;fill-opacity:1;fill-rule:nonzero;stroke:#000000;stroke-width:0.140441;stroke-linecap:round;stroke-linejoin:round;stroke-miterlimit:4;stroke-dasharray:none;stroke-dashoffset:0;stroke-opacity:1;marker-start:none;marker-end:url(#marker-arrow-0.5308-6);color-rendering:auto;image-rendering:auto;shape-rendering:auto;text-rendering:auto;enable-background:accumulate"
         d="m 22.31933,261.92495 -6.5453,3.37375"
         id="path1072"
         inkscape:connector-curvature="0" />
      <g
         id="surface1"
         transform="matrix(0.2270485,0,0,0.22689786,22.15259,253.91485)"
         style="stroke-width:1.1657">
        <g
           id="g1107"
           style="fill:#000000;fill-opacity:1;stroke-width:1.1657">
          <g
             id="use1105"
             style="stroke-width:1.1657"
             transform="matrix(0.26458333,0,0,0.26458333,11.955,198.43)">
            <path
               style="stroke:none"
               d="m 3.09375,-4.015625 c 0.296875,0 0.875,0 1.296875,0.25 0.5625,0.375 0.625,1.015625 0.625,1.09375 0,0.15625 0,0.3125 0.203125,0.3125 0.203125,0 0.203125,-0.15625 0.203125,-0.375 V -5.96875 c 0,-0.203125 0,-0.390625 -0.203125,-0.390625 -0.203125,0 -0.203125,0.171875 -0.203125,0.28125 -0.078125,1.53125 -1.296875,1.625 -1.921875,1.625 V -6.96875 c 0,-0.796875 0.234375,-0.796875 0.515625,-0.796875 H 4.1875 c 1.609375,0 2.40625,0.828125 2.484375,1.640625 0.015625,0.09375 0.015625,0.28125 0.21875,0.28125 0.203125,0 0.203125,-0.1875 0.203125,-0.390625 v -1.5625 C 7.09375,-8.15625 7.0625,-8.1875 6.6875,-8.1875 H 0.578125 c -0.21875,0 -0.40625,0 -0.40625,0.21875 0,0.203125 0.21875,0.203125 0.3125,0.203125 0.6875,0 0.734375,0.09375 0.734375,0.671875 v 6 c 0,0.5625 -0.03125,0.671875 -0.671875,0.671875 -0.171875,0 -0.375,0 -0.375,0.203125 C 0.171875,0 0.359375,0 0.578125,0 H 6.90625 C 7.140625,0 7.25,0 7.296875,-0.171875 c 0,0 0.34375,-2 0.34375,-2.0625 0,-0.125 -0.109375,-0.21875 -0.203125,-0.21875 -0.171875,0 -0.21875,0.15625 -0.21875,0.171875 -0.078125,0.3125 -0.1875,0.8125 -1.0625,1.328125 -0.625,0.375 -1.234375,0.53125 -1.890625,0.53125 h -0.65625 c -0.28125,0 -0.515625,0 -0.515625,-0.796875 z m 3.578125,-3.75 v 0.5625 c -0.203125,-0.21875 -0.4375,-0.40625 -0.6875,-0.5625 z m -2.328125,3.5 C 4.53125,-4.34375 4.796875,-4.53125 5.015625,-4.78125 v 1 C 4.71875,-4.09375 4.34375,-4.25 4.34375,-4.25 Z m -2.703125,-2.84375 c 0,-0.140625 0,-0.4375 -0.09375,-0.65625 H 2.8125 C 2.671875,-7.5 2.671875,-7.09375 2.671875,-7 v 5.8125 c 0,0.421875 0.09375,0.65625 0.140625,0.765625 H 1.546875 c 0.09375,-0.21875 0.09375,-0.515625 0.09375,-0.65625 z m 4.4375,6.6875 V -0.4375 C 6.46875,-0.625 6.796875,-0.875 7.03125,-1.09375 7.015625,-1.046875 6.9375,-0.515625 6.921875,-0.421875 Z m 0,0"
               id="path989" />
          </g>
        </g>
        <g
           id="g1111"
           style="fill:#000000;fill-opacity:1;stroke-width:1.1657">
          <g
             id="use1109"
             style="stroke-width:1.1657"
             transform="matrix(0.26458333,0,0,0.26458333,19.924999,194.091)">
            <path
               style="stroke:none"
               d="m 2.015625,-2.65625 c 0.625,0 1.03125,0.453125 1.03125,1.296875 0,1 -0.5625,1.28125 -0.984375,1.28125 -0.4375,0 -1.046875,-0.15625 -1.328125,-0.578125 0.296875,0 0.5,-0.1875 0.5,-0.4375 0,-0.265625 -0.1875,-0.4375 -0.453125,-0.4375 -0.203125,0 -0.4375,0.125 -0.4375,0.453125 0,0.75 0.8125,1.25 1.734375,1.25 C 3.125,0.171875 3.875,-0.5625 3.875,-1.359375 3.875,-2.03125 3.34375,-2.625 2.53125,-2.8125 c 0.625,-0.21875 1.109375,-0.75 1.109375,-1.390625 0,-0.640625 -0.71875,-1.09375 -1.546875,-1.09375 -0.859375,0 -1.5,0.453125 -1.5,1.0625 0,0.296875 0.1875,0.421875 0.40625,0.421875 0.25,0 0.40625,-0.171875 0.40625,-0.40625 0,-0.296875 -0.265625,-0.40625 -0.4375,-0.40625 0.34375,-0.4375 0.953125,-0.46875 1.09375,-0.46875 0.203125,0 0.8125,0.0625 0.8125,0.890625 0,0.546875 -0.234375,0.890625 -0.34375,1.015625 -0.234375,0.25 -0.421875,0.265625 -0.90625,0.296875 -0.15625,0 -0.21875,0.015625 -0.21875,0.125 0,0.109375 0.078125,0.109375 0.21875,0.109375 z m 0,0"
               id="path985" />
          </g>
        </g>
      </g>
    </g>
  </g>
</svg>
